<?xml version="1.0"?>
<svg xmlns="http://www.w3.org/2000/svg" xmlns:xlink="http://www.w3.org/1999/xlink" xmlns:svgjs="http://svgjs.com/svgjs" version="1.1" width="512" height="512" x="0" y="0" viewBox="0 0 64 64" style="enable-background:new 0 0 512 512" xml:space="preserve" class=""><g><g xmlns="http://www.w3.org/2000/svg" id="Home_insurance" data-name="Home insurance"><path d="M56.28,9.04l-24-7a.988.988,0,0,0-.56,0l-24,7A1,1,0,0,0,7,10V28a22.684,22.684,0,0,0,6.69,16.075h0l17.6,17.631a1,1,0,0,0,1.416,0l17.6-17.632A22.684,22.684,0,0,0,57,28V10A1,1,0,0,0,56.28,9.04ZM55,28a20.7,20.7,0,0,1-6.106,14.663L32,59.584,15.106,42.663A20.7,20.7,0,0,1,9,28V10.75L32,4.042,55,10.75Z" fill="#ffffff" data-original="#000000" style="" class=""/><path d="M31.72,6.207l-20,5.833A1,1,0,0,0,11,13V28a18.7,18.7,0,0,0,5.521,13.249h0l14.77,14.8a1,1,0,0,0,1.416,0L47.474,41.254A18.7,18.7,0,0,0,53,28V13a1,1,0,0,0-.72-.96l-20-5.833A.988.988,0,0,0,31.72,6.207ZM32,53.923,21.1,43h21.81Zm.659-39.675a1,1,0,0,0-1.318,0L17.893,26.015l.986-3.452L32,11.317,45.121,22.563l.986,3.452ZM22,25.079l10-8.75,10,8.75V41H38V28a1,1,0,0,0-1-1H27a1,1,0,0,0-1,1V41H22ZM36,41H28V29h8ZM51,13.75V28a16.717,16.717,0,0,1-4.943,11.842L44,41.9V26.829l3.341,2.923a1,1,0,0,0,1.62-1.027l-2-7a.989.989,0,0,0-.31-.484l-14-12a1,1,0,0,0-1.3,0l-14,12a.989.989,0,0,0-.31.484l-2,7a1,1,0,0,0,1.62,1.027L20,26.829V41.9l-2.062-2.065A16.713,16.713,0,0,1,13,28V13.75L32,8.208Z" fill="#ffffff" data-original="#000000" style="" class=""/></g></g></svg>
